<?xml version="1.0" standalone="no"?><!-- Generator: Gravit.io --><svg xmlns="http://www.w3.org/2000/svg" xmlns:xlink="http://www.w3.org/1999/xlink" style="isolation:isolate" viewBox="0 0 124 24" width="124" height="24"><defs><clipPath id="_clipPath_UJNQKKnbLCwQ91ecDlSycqHJ0j3WQUuM"><rect width="124" height="24"/></clipPath></defs><g clip-path="url(#_clipPath_UJNQKKnbLCwQ91ecDlSycqHJ0j3WQUuM)"><rect width="124" height="24" style="fill:rgb(0,0,0)" fill-opacity="0"/><g><path d=" M 83.478 6.107 C 82.915 6.107 82.352 6.107 81.789 6.107 C 81.414 6.107 81.077 6.202 80.777 6.43 C 80.326 6.771 80.214 7.263 80.214 7.794 C 80.214 10.125 80.214 12.475 80.214 14.806 L 80.214 17.118 C 80.214 17.402 80.439 17.649 80.739 17.649 L 82.465 17.649 C 82.746 17.649 82.99 17.421 82.99 17.118 L 82.99 15.28 L 82.99 14.825 L 82.99 8.874 L 85.522 8.874 C 85.804 8.874 86.047 8.647 86.047 8.344 L 86.047 6.638 C 86.047 6.354 85.822 6.107 85.522 6.107 L 83.478 6.107 Z " fill="rgb(49,51,255)"/><path d=" M 22.515 12.001 L 16.231 12.001 C 15.894 12.001 15.594 12.229 15.537 12.57 C 15.275 14.181 13.887 15.412 12.217 15.412 C 10.36 15.412 8.859 13.896 8.859 12.02 C 8.859 10.352 10.041 8.969 11.617 8.685 C 11.973 8.609 12.236 8.325 12.236 7.946 L 12.236 1.616 C 12.236 1.066 11.786 0.631 11.242 0.668 C 5.483 1.18 1 6.051 1 11.982 C 1 18.255 6.027 23.334 12.236 23.334 C 18.107 23.334 22.928 18.786 23.434 13.006 C 23.472 12.437 23.059 12.001 22.515 12.001 Z " fill="rgb(49,51,255)"/><path d=" M 23.434 9.784 L 23.434 1.919 C 23.434 1.237 22.872 0.668 22.196 0.668 L 14.412 0.668 C 13.699 0.668 13.343 1.54 13.849 2.033 L 22.065 10.333 C 22.571 10.845 23.434 10.485 23.434 9.784 Z " fill="rgb(49,51,255)"/><path d=" M 37.728 17.876 C 34.333 17.876 31.856 15.337 31.856 11.887 C 31.856 8.419 34.333 5.88 37.728 5.88 C 40.448 5.88 42.586 7.529 43.261 9.954 C 43.336 10.22 43.149 10.485 42.867 10.485 L 40.766 10.485 C 40.616 10.485 40.466 10.39 40.391 10.239 C 39.922 9.253 38.909 8.59 37.69 8.59 C 35.946 8.59 34.651 9.973 34.651 11.869 C 34.651 13.764 35.946 15.147 37.69 15.147 C 38.891 15.147 39.922 14.484 40.391 13.498 C 40.466 13.347 40.598 13.252 40.766 13.252 L 42.867 13.252 C 43.149 13.252 43.336 13.517 43.261 13.783 C 42.567 16.265 40.429 17.876 37.728 17.876 Z " fill="rgb(49,51,255)"/><path d=" M 44.724 11.906 C 44.724 8.382 47.257 5.899 50.708 5.899 C 54.197 5.899 56.692 8.382 56.692 11.906 C 56.692 15.431 54.178 17.895 50.708 17.895 C 47.257 17.876 44.724 15.412 44.724 11.906 Z  M 53.897 11.906 C 53.897 9.992 52.603 8.628 50.727 8.628 C 48.87 8.628 47.557 9.992 47.557 11.906 C 47.557 13.783 48.87 15.185 50.727 15.185 C 52.603 15.166 53.897 13.783 53.897 11.906 Z " fill="rgb(49,51,255)"/><path d=" M 70.966 5.293 L 70.966 2.507 C 70.966 2.279 71.154 2.09 71.379 2.09 L 73.33 2.09 C 73.555 2.09 73.742 2.279 73.742 2.507 L 73.742 6.126 L 77.55 6.126 C 77.775 6.126 77.963 6.316 77.963 6.543 L 77.963 8.268 C 77.963 8.495 77.775 8.685 77.55 8.685 L 73.742 8.685 L 73.742 13.081 C 73.742 14.465 74.305 15.09 75.787 15.09 C 76.237 15.09 76.781 15.071 77.513 14.995 C 77.757 14.976 77.963 15.166 77.963 15.412 L 77.963 17.27 C 77.963 17.478 77.813 17.668 77.588 17.686 C 76.762 17.781 75.937 17.819 75.243 17.819 C 72.523 17.819 70.966 16.341 70.966 13.366 L 70.966 8.666 L 70.966 5.293 Z " fill="rgb(49,51,255)"/><path d=" M 86.666 11.906 C 86.666 8.382 89.199 5.899 92.65 5.899 C 96.139 5.899 98.634 8.382 98.634 11.906 C 98.634 15.431 96.12 17.895 92.65 17.895 C 89.199 17.876 86.666 15.412 86.666 11.906 Z  M 95.82 11.906 C 95.82 9.992 94.526 8.628 92.65 8.628 C 90.793 8.628 89.48 9.992 89.48 11.906 C 89.48 13.783 90.793 15.185 92.65 15.185 C 94.545 15.166 95.82 13.783 95.82 11.906 Z " fill="rgb(49,51,255)"/><path d=" M 103.379 2.488 L 103.379 17.232 C 103.379 17.459 103.192 17.649 102.967 17.649 L 101.016 17.649 C 100.791 17.649 100.603 17.459 100.603 17.232 L 100.603 2.488 C 100.603 2.26 100.791 2.071 101.016 2.071 L 102.967 2.071 C 103.192 2.071 103.379 2.26 103.379 2.488 Z " fill="rgb(49,51,255)"/><path d=" M 109.007 2.488 L 109.007 17.232 C 109.007 17.459 108.819 17.649 108.594 17.649 L 106.643 17.649 C 106.418 17.649 106.231 17.459 106.231 17.232 L 106.231 2.488 C 106.231 2.26 106.418 2.071 106.643 2.071 L 108.594 2.071 C 108.819 2.071 109.007 2.26 109.007 2.488 Z " fill="rgb(49,51,255)"/><path d=" M 68.715 14.882 C 68.715 13.517 68.715 12.153 68.715 10.788 C 68.715 10.371 68.697 9.936 68.64 9.519 C 68.565 8.798 68.303 8.116 67.871 7.529 C 67.083 6.467 66.014 5.918 64.739 5.88 C 63.163 5.88 61.569 5.88 59.993 5.88 C 59.73 5.88 59.468 5.937 59.224 6.051 C 58.586 6.354 58.342 6.903 58.342 7.586 C 58.342 10.163 58.342 12.759 58.342 15.337 L 58.342 17.137 C 58.342 17.421 58.567 17.668 58.868 17.668 L 60.65 17.668 C 60.931 17.668 61.175 17.44 61.175 17.137 L 61.175 15.128 C 61.175 12.93 61.175 11.262 61.175 9.083 C 61.175 9.026 61.175 8.95 61.175 8.893 C 61.175 8.78 61.212 8.723 61.344 8.723 C 62.263 8.742 63.201 8.704 64.12 8.761 C 64.87 8.817 65.433 9.196 65.733 9.917 C 65.92 10.371 65.958 10.826 65.958 11.3 C 65.958 12.437 65.958 15.829 65.958 17.137 C 65.958 17.421 66.183 17.668 66.483 17.668 L 68.265 17.668 C 68.547 17.668 68.79 17.44 68.79 17.137 L 68.715 14.882 Z " fill="rgb(49,51,255)"/><path d=" M 119.755 14.218 C 119.624 14.218 119.492 14.275 119.398 14.37 C 118.817 15.014 117.973 15.393 116.979 15.393 C 115.347 15.393 114.128 14.351 113.771 12.854 L 116.829 12.854 L 120.224 12.854 L 122.512 12.854 C 122.756 12.854 122.962 12.665 122.981 12.418 C 123 12.172 123 11.925 123 11.66 C 122.887 8.382 120.168 5.861 116.922 5.899 C 113.509 5.937 111.014 8.419 111.014 11.906 C 111.014 15.431 113.546 17.895 116.997 17.895 C 119.436 17.895 121.387 16.682 122.343 14.768 C 122.475 14.522 122.287 14.218 122.006 14.218 L 119.755 14.218 Z  M 116.979 8.419 C 118.479 8.419 119.605 9.253 120.074 10.523 L 113.884 10.523 C 114.353 9.253 115.497 8.419 116.979 8.419 Z " fill="rgb(49,51,255)"/></g></g></svg>