<?xml version="1.0" standalone="no"?><!-- Generator: Gravit.io --><svg xmlns="http://www.w3.org/2000/svg" xmlns:xlink="http://www.w3.org/1999/xlink" style="isolation:isolate" viewBox="0 0 50 50" width="50" height="50"><defs><clipPath id="_clipPath_j7azc92i1wuaMUziBVmIUPfWU7hsUcQy"><rect width="50" height="50"/></clipPath></defs><g clip-path="url(#_clipPath_j7azc92i1wuaMUziBVmIUPfWU7hsUcQy)"><rect width="50" height="50" style="fill:rgb(0,0,0)" fill-opacity="0"/><clipPath id="_clipPath_EtU91T4htowQQw4PFCKUYc41TqeUYs1P"><rect x="2" y="4.032" width="227" height="43.935" transform="matrix(1,0,0,1,0,0)" fill="rgb(255,255,255)"/></clipPath><g clip-path="url(#_clipPath_EtU91T4htowQQw4PFCKUYc41TqeUYs1P)"><g><rect x="2" y="4.032" width="227" height="43.935" transform="matrix(1,0,0,1,0,0)" fill="none"/><g><path d=" M 43.217 26.002 L 31.713 26.002 C 31.096 26.002 30.547 26.419 30.443 27.043 C 29.963 29.993 27.422 32.246 24.365 32.246 C 20.965 32.246 18.218 29.471 18.218 26.037 C 18.218 22.983 20.382 20.451 23.267 19.931 C 23.918 19.792 24.4 19.272 24.4 18.579 L 24.4 6.991 C 24.4 5.984 23.576 5.187 22.58 5.255 C 12.037 6.192 3.831 15.109 3.831 25.967 C 3.831 37.451 13.033 46.749 24.4 46.749 C 35.147 46.749 43.973 38.423 44.899 27.842 C 44.969 26.8 44.213 26.002 43.217 26.002 Z " fill="rgb(49,51,255)"/><path d=" M 44.899 21.943 L 44.899 7.545 C 44.899 6.297 43.871 5.255 42.633 5.255 L 28.383 5.255 C 27.078 5.255 26.426 6.851 27.353 7.754 L 42.393 22.948 C 43.319 23.886 44.899 23.227 44.899 21.943 Z " fill="rgb(49,51,255)"/></g></g></g></g></svg>